<svg width="36" height="29" viewBox="0 0 36 29" fill="none" xmlns="http://www.w3.org/2000/svg">
<path d="M25.2597 7.40336C25.2597 7.40336 22.4212 0.691893 16.6296 1.10577C16.5722 1.10577 9.77705 0.898833 8.57286 9.85725C8.57286 9.79815 1.34764 9.1477 0.860229 14.7652C0.917573 14.7947 0.286795 22.0088 9.40435 21.3879L29.3598 21.4234C29.3598 21.4234 37.4165 17.9465 34.1479 11.2528C30.8793 4.55912 25.2597 7.40336 25.2597 7.40336Z" fill="white"/>
<path d="M27.863 6.10823C27.1691 6.11418 26.4982 6.20877 25.8617 6.3803C25.271 6.53994 24.7033 6.77058 24.1758 7.06617C24.1643 7.07211 24.1643 7.08391 24.1643 7.0958C24.1758 7.13121 24.1872 7.17265 24.1987 7.20814C24.2101 7.23175 24.2101 7.25544 24.2217 7.27905C24.2332 7.31454 24.2446 7.36184 24.2561 7.39734C24.474 8.14238 25.2424 8.56815 25.9648 8.31977C25.9935 8.30797 26.0222 8.30203 26.0452 8.29022C26.091 8.27842 26.1369 8.26067 26.177 8.24887C26.2229 8.23698 26.2631 8.21923 26.3089 8.21337C26.7218 8.10103 27.1519 8.03004 27.5934 8.00644C31.2519 7.8231 34.2739 11.0162 33.9986 14.7829C33.7807 17.7276 31.6017 20.1106 28.8149 20.5423C28.5166 20.5896 28.2069 20.6132 27.8973 20.6132H22.8855C22.8626 20.6132 22.8512 20.6428 22.8741 20.6546C24.193 21.7663 25.8617 22.4463 27.6794 22.4996C27.754 22.5054 27.8286 22.5054 27.8973 22.5054C28.2069 22.5054 28.5109 22.4877 28.8149 22.4523C32.783 21.9792 35.868 18.4845 35.8508 14.2625C35.8336 9.75671 32.2382 6.09057 27.863 6.10823ZM7.62088 20.6192H6.70337C6.39376 20.6192 6.08408 20.5896 5.78594 20.5305C3.49792 20.0751 1.7719 17.9701 1.82924 15.4629C1.86365 13.9491 2.55749 12.6068 3.6183 11.7139C4.48418 10.9807 5.60244 10.5491 6.80085 10.5727C7.13915 10.5846 7.47177 10.6259 7.79292 10.7028C7.85023 10.7146 7.89609 10.7324 7.95349 10.7442C7.98211 10.7501 8.01081 10.756 8.03374 10.7678C8.05666 10.7737 8.07959 10.7797 8.10829 10.7915H8.11976C8.84799 11.0221 9.582 10.4485 9.57623 9.65617V9.63248C9.57623 9.53788 9.57623 9.44329 9.582 9.35455C9.02003 9.07671 8.41221 8.88157 7.78145 8.77509C7.4316 8.71599 7.07615 8.68644 6.70914 8.68644C4.85696 8.68644 3.17107 9.46698 1.95539 10.7264C0.751197 11.9801 0 13.7008 0 15.6048C0 19.0936 2.52309 21.9969 5.79163 22.4523C6.02676 22.4877 6.26189 22.5054 6.49694 22.5114H6.5084C6.57149 22.5173 6.64027 22.5173 6.70337 22.5173C6.77223 22.5173 6.84101 22.5173 6.9098 22.5114C8.60717 22.4581 10.1554 21.7486 11.308 20.625H7.62088V20.6192Z" fill="#6D6D6D"/>
<path d="M25.8618 6.3803C25.5292 5.44011 25.0704 4.56497 24.4855 3.78443C22.7767 1.48415 20.0931 0 17.0711 0C12.2027 0 8.19442 3.86128 7.77009 8.76328C7.74717 9.04715 7.7357 9.33689 7.7357 9.62662C7.7357 9.98734 7.75285 10.348 7.79302 10.6969C7.85034 10.7087 7.89628 10.7264 7.95359 10.7382C7.98221 10.7442 8.01091 10.7501 8.03384 10.7619C8.05677 10.7679 8.07969 10.7737 8.1084 10.7856H8.11986C8.20019 10.8092 8.26897 10.8388 8.34922 10.8683C8.96281 11.0931 9.6108 10.6082 9.5821 9.9341C9.57641 9.8395 9.57641 9.7449 9.57641 9.65022V9.62662C9.57641 9.53202 9.57641 9.43743 9.5821 9.34869C9.72544 5.21543 13.0342 1.89217 17.0768 1.89217C19.8236 1.89217 22.2263 3.41776 23.5336 5.70029C23.7802 6.13786 23.9924 6.59318 24.1587 7.07805C24.1587 7.08391 24.1644 7.08985 24.1644 7.0958C24.1759 7.13129 24.1874 7.17264 24.1989 7.20814C24.2103 7.23175 24.2103 7.25544 24.2218 7.27904C24.2275 7.29093 24.2333 7.30274 24.2333 7.31454C24.4741 8.10103 25.2826 8.5504 26.0453 8.29616C26.0911 8.28436 26.1371 8.26661 26.1771 8.25472C26.2231 8.24292 26.2632 8.22517 26.309 8.21931C26.2173 7.58066 26.0682 6.9657 25.8618 6.3803ZM27.8974 20.6192C27.5878 20.6192 27.2782 20.6665 26.9799 20.6192H7.62098C7.51781 20.6369 7.42601 20.6428 7.32284 20.6428C7.1221 20.6428 6.91567 20.6192 6.70347 20.6192C6.39387 20.6192 6.08418 20.5896 5.78604 20.5304L6.49135 22.5055H27.9376L28.8206 20.5482C28.5167 20.5955 28.2128 20.6192 27.8974 20.6192Z" fill="#6D6D6D"/>
<path d="M26.8341 17.4307C26.8341 17.4307 24.7887 12.5075 20.6151 12.8111C20.5737 12.8111 15.677 12.6593 14.8092 19.2307C14.8092 19.1874 9.60255 18.7102 9.25131 22.8309C9.29264 22.8526 8.83808 28.1444 15.4084 27.689L29.7887 27.715C29.7887 27.715 35.5946 25.1645 33.2392 20.2544C30.8838 15.3443 26.8341 17.4307 26.8341 17.4307Z" fill="white"/>
<path d="M28.7101 16.4806C28.2101 16.485 27.7266 16.5544 27.2679 16.6802C26.8423 16.7973 26.4332 16.9665 26.053 17.1833C26.0447 17.1877 26.0447 17.1963 26.0447 17.2051C26.053 17.231 26.0613 17.2614 26.0695 17.2875C26.0778 17.3048 26.0778 17.3222 26.0861 17.3395C26.0944 17.3655 26.1026 17.4002 26.1109 17.4263C26.2679 17.9728 26.8216 18.2851 27.3423 18.1029C27.3629 18.0942 27.3836 18.0899 27.4002 18.0812C27.4332 18.0726 27.4662 18.0596 27.4952 18.0509C27.5282 18.0422 27.5572 18.0292 27.5902 18.0249C27.8877 17.9424 28.1977 17.8904 28.5159 17.8731C31.1523 17.7386 33.33 20.0808 33.1316 22.8439C32.9746 25.004 31.4043 26.752 29.3961 27.0686C29.1811 27.1033 28.958 27.1207 28.7349 27.1207H25.1233C25.1067 27.1207 25.0985 27.1424 25.115 27.151C26.0654 27.9665 27.2679 28.4653 28.5779 28.5044C28.6316 28.5087 28.6853 28.5087 28.7349 28.5087C28.958 28.5087 29.177 28.4957 29.3961 28.4697C32.2556 28.1227 34.4787 25.5592 34.4663 22.4621C34.4539 19.157 31.863 16.4677 28.7101 16.4806ZM14.1232 27.1251H13.462C13.2389 27.1251 13.0157 27.1033 12.8009 27.06C11.1521 26.726 9.90828 25.1818 9.9496 23.3427C9.9744 22.2322 10.4744 21.2476 11.2388 20.5927C11.8628 20.0548 12.6687 19.7382 13.5323 19.7555C13.776 19.7642 14.0157 19.7946 14.2472 19.8509C14.2885 19.8596 14.3215 19.8727 14.3629 19.8813C14.3835 19.8857 14.4042 19.89 14.4207 19.8986C14.4372 19.903 14.4537 19.9074 14.4744 19.916H14.4827C15.0075 20.0852 15.5364 19.6644 15.5323 19.0832V19.0658C15.5323 18.9964 15.5323 18.9271 15.5364 18.862C15.1314 18.6582 14.6934 18.515 14.2389 18.4369C13.9868 18.3935 13.7306 18.3719 13.4662 18.3719C12.1314 18.3719 10.9166 18.9444 10.0405 19.8683C9.17274 20.7879 8.63141 22.0501 8.63141 23.4468C8.63141 26.006 10.4496 28.1357 12.805 28.4697C12.9744 28.4957 13.1439 28.5087 13.3132 28.513H13.3215C13.367 28.5174 13.4165 28.5174 13.462 28.5174C13.5116 28.5174 13.5612 28.5174 13.6108 28.513C14.8339 28.474 15.9496 27.9535 16.7802 27.1293H14.1232V27.1251Z" fill="#6D6D6D"/>
<path d="M27.268 16.6802C27.0283 15.9906 26.6977 15.3486 26.2763 14.776C25.0448 13.0887 23.111 12 20.9333 12C17.4249 12 14.5365 14.8324 14.2307 18.4282C14.2142 18.6365 14.2059 18.849 14.2059 19.0615C14.2059 19.3261 14.2183 19.5907 14.2472 19.8466C14.2885 19.8553 14.3216 19.8683 14.363 19.877C14.3836 19.8813 14.4043 19.8857 14.4208 19.8943C14.4373 19.8987 14.4538 19.903 14.4745 19.9117H14.4828C14.5407 19.929 14.5902 19.9507 14.648 19.9724C15.0902 20.1373 15.5572 19.7815 15.5365 19.2871C15.5324 19.2177 15.5324 19.1483 15.5324 19.0789V19.0615C15.5324 18.9921 15.5324 18.9228 15.5365 18.8577C15.6398 15.8257 18.0241 13.388 20.9374 13.388C22.9167 13.388 24.6482 14.5071 25.5903 16.1814C25.768 16.5024 25.9209 16.8364 26.0407 17.1921C26.0407 17.1963 26.0448 17.2007 26.0448 17.2051C26.0531 17.2311 26.0614 17.2614 26.0697 17.2875C26.0779 17.3048 26.0779 17.3222 26.0862 17.3395C26.0903 17.3482 26.0944 17.3569 26.0944 17.3655C26.268 17.9424 26.8507 18.2721 27.4002 18.0856C27.4333 18.0769 27.4664 18.0639 27.4953 18.0552C27.5284 18.0465 27.5572 18.0335 27.5903 18.0292C27.5242 17.5607 27.4167 17.1096 27.268 16.6802ZM28.7349 27.1251C28.5118 27.1251 28.2887 27.1597 28.0738 27.1251H14.1233C14.0489 27.1381 13.9828 27.1424 13.9084 27.1424C13.7638 27.1424 13.615 27.1251 13.4621 27.1251C13.239 27.1251 13.0158 27.1034 12.801 27.06L13.3092 28.5087H28.7639L29.4002 27.073C29.1812 27.1077 28.9622 27.1251 28.7349 27.1251Z" fill="#6D6D6D"/>
</svg>
