<svg width="48" height="48" viewBox="0 0 48 48" fill="none" xmlns="http://www.w3.org/2000/svg">
<path d="M35.5273 30.2011C35.5273 30.2011 32.1846 22.2974 25.3641 22.7848C25.2966 22.7848 17.2943 22.5411 15.8762 33.0909C15.8762 33.0213 7.36749 32.2553 6.79349 38.8707C6.86102 38.9055 6.11819 47.4011 16.8554 46.6699L40.3557 46.7117C40.3557 46.7117 49.8436 42.6171 45.9944 34.7344C42.1452 26.8516 35.5273 30.2011 35.5273 30.2011Z" fill="white"/>
<path d="M36.0742 18.5928C36.0742 21.1972 35.5543 23.6832 34.6156 25.9324C34.2915 26.7123 33.9133 27.4644 33.4946 28.1886C31.9549 25.5076 29.1187 23.7041 25.8908 23.7041C21.1232 23.7041 17.2335 27.6176 17.0647 32.4851C17.0579 32.5966 17.0579 32.701 17.0579 32.8124V32.8403C17.0579 32.9517 17.0579 33.0631 17.0647 33.1745C17.0985 33.9684 16.3286 34.5394 15.6128 34.2748C15.5183 34.24 15.4372 34.2051 15.3427 34.1773H15.3292C15.3022 34.1634 15.2752 34.1634 15.2414 34.1494C15.2076 34.1355 15.1739 34.1355 15.1469 34.1216C15.0793 34.1077 15.0253 34.0868 14.9578 34.0728C14.5796 33.9823 14.1879 33.9336 13.7895 33.9196C12.3714 33.8918 11.0613 34.4001 10.0416 35.2636C9.35958 34.9154 8.70455 34.5255 8.07652 34.0937C3.20765 30.7721 0 25.0759 0 18.5928C0 8.32149 8.07652 0 18.0371 0C27.9977 0 36.0742 8.32149 36.0742 18.5928Z" fill="#FFBC00"/>
<path d="M38.593 28.6759C37.7759 28.6829 36.9858 28.7943 36.2362 28.9963C35.5406 29.1843 34.8721 29.4559 34.2508 29.804C34.2373 29.811 34.2373 29.8249 34.2373 29.8389C34.2508 29.8806 34.2643 29.9294 34.2778 29.9712C34.2913 29.999 34.2913 30.0269 34.3049 30.0547C34.3184 30.0965 34.3319 30.1522 34.3454 30.194C34.602 31.0714 35.5069 31.5728 36.3577 31.2803C36.3915 31.2664 36.4253 31.2594 36.4523 31.2455C36.5063 31.2316 36.5603 31.2107 36.6076 31.1968C36.6616 31.1828 36.7089 31.1619 36.7629 31.155C37.2491 31.0227 37.7556 30.9391 38.2756 30.9113C42.584 30.6954 46.1428 34.4557 45.8186 38.8915C45.562 42.3594 42.9959 45.1657 39.714 45.674C39.3628 45.7297 38.9981 45.7576 38.6335 45.7576H32.7314C32.7044 45.7576 32.6909 45.7924 32.7179 45.8063C34.2711 47.1155 36.2362 47.9163 38.3769 47.979C38.4647 47.9859 38.5525 47.9859 38.6335 47.9859C38.9981 47.9859 39.3561 47.965 39.714 47.9233C44.387 47.3662 48.0201 43.2507 47.9998 38.2787C47.9796 32.9725 43.7455 28.6551 38.593 28.6759ZM14.7551 45.7646H13.6746C13.31 45.7646 12.9453 45.7297 12.5942 45.6601C9.89973 45.1239 7.8671 42.6449 7.93463 39.6923C7.97515 37.9096 8.79225 36.3289 10.0415 35.2774C11.0612 34.4139 12.3781 33.9056 13.7894 33.9334C14.1878 33.9474 14.5795 33.9961 14.9577 34.0866C15.0252 34.1006 15.0792 34.1215 15.1468 34.1354C15.1805 34.1424 15.2143 34.1493 15.2413 34.1632C15.2683 34.1702 15.2953 34.1772 15.3291 34.1911H15.3426C16.2002 34.4627 17.0646 33.7872 17.0578 32.8541V32.8262C17.0578 32.7148 17.0578 32.6034 17.0646 32.4989C16.4028 32.1717 15.687 31.9419 14.9442 31.8165C14.5322 31.7469 14.1136 31.7121 13.6814 31.7121C11.5002 31.7121 9.51482 32.6313 8.08319 34.1145C6.66508 35.5908 5.78044 37.6172 5.78044 39.8594C5.78044 43.968 8.75174 47.3871 12.6009 47.9233C12.8778 47.965 13.1547 47.9859 13.4315 47.9929H13.445C13.5193 47.9999 13.6003 47.9999 13.6746 47.9999C13.7557 47.9999 13.8367 47.9999 13.9177 47.9929C15.9166 47.9302 17.7399 47.0946 19.0972 45.7715H14.7551V45.7646Z" fill="#6D6D6D"/>
<path d="M36.2363 28.9963C35.8446 27.8891 35.3044 26.8585 34.6156 25.9393C32.6032 23.2304 29.4429 21.4826 25.8841 21.4826C20.1508 21.4826 15.4305 26.0298 14.9308 31.8026C14.9038 32.1369 14.8903 32.4781 14.8903 32.8193C14.8903 33.2441 14.9105 33.6688 14.9578 34.0797C15.0253 34.0936 15.0794 34.1145 15.1469 34.1284C15.1806 34.1354 15.2144 34.1424 15.2414 34.1563C15.2684 34.1633 15.2954 34.1702 15.3292 34.1842H15.3427C15.4373 34.212 15.5183 34.2468 15.6128 34.2816C16.3354 34.5463 17.0985 33.9752 17.0647 33.1814C17.058 33.07 17.058 32.9586 17.058 32.8471V32.8193C17.058 32.7079 17.058 32.5965 17.0647 32.492C17.2335 27.6245 21.13 23.7109 25.8908 23.7109C29.1255 23.7109 31.955 25.5075 33.4946 28.1955C33.785 28.7108 34.0349 29.247 34.2307 29.818C34.2307 29.8249 34.2374 29.8319 34.2374 29.8389C34.251 29.8807 34.2645 29.9294 34.278 29.9712C34.2915 29.999 34.2915 30.0269 34.305 30.0547C34.3117 30.0687 34.3185 30.0826 34.3185 30.0965C34.6021 31.0227 35.5543 31.5519 36.4524 31.2525C36.5064 31.2386 36.5605 31.2177 36.6077 31.2037C36.6618 31.1898 36.709 31.1689 36.763 31.162C36.655 30.4099 36.4794 29.6857 36.2363 28.9963ZM38.6336 45.7646C38.269 45.7646 37.9043 45.8203 37.5531 45.7646H14.7552C14.6337 45.7855 14.5256 45.7924 14.4041 45.7924C14.1677 45.7924 13.9246 45.7646 13.6747 45.7646C13.3101 45.7646 12.9454 45.7298 12.5943 45.6601L13.4249 47.986H38.6809L39.7208 45.681C39.3629 45.7367 39.005 45.7646 38.6336 45.7646Z" fill="#6D6D6D"/>
</svg>
