<svg width="36" height="33" viewBox="0 0 36 33" fill="none" xmlns="http://www.w3.org/2000/svg">
<path d="M25.2597 7.40336C25.2597 7.40336 22.4212 0.691897 16.6296 1.10578C16.5722 1.10578 9.77705 0.898837 8.57286 9.85725C8.57286 9.79815 1.34764 9.1477 0.860229 14.7652C0.917573 14.7948 0.286795 22.0088 9.40435 21.3879L29.3598 21.4234C29.3598 21.4234 37.4165 17.9465 34.1479 11.2528C30.8793 4.55912 25.2597 7.40336 25.2597 7.40336Z" fill="white"/>
<path d="M27.863 6.10823C27.1691 6.11418 26.4982 6.20877 25.8617 6.3803C25.271 6.53994 24.7033 6.77058 24.1758 7.06617C24.1643 7.07211 24.1643 7.08391 24.1643 7.0958C24.1758 7.13121 24.1872 7.17265 24.1987 7.20814C24.2101 7.23175 24.2101 7.25544 24.2217 7.27905C24.2332 7.31454 24.2446 7.36184 24.2561 7.39734C24.474 8.14238 25.2424 8.56815 25.9648 8.31977C25.9935 8.30797 26.0222 8.30203 26.0452 8.29022C26.091 8.27842 26.1369 8.26067 26.177 8.24887C26.2229 8.23698 26.2631 8.21923 26.3089 8.21337C26.7218 8.10103 27.1519 8.03004 27.5934 8.00644C31.2519 7.8231 34.2739 11.0162 33.9986 14.7829C33.7807 17.7276 31.6017 20.1106 28.8149 20.5423C28.5166 20.5896 28.2069 20.6132 27.8973 20.6132H22.8855C22.8626 20.6132 22.8512 20.6428 22.8741 20.6546C24.193 21.7663 25.8617 22.4463 27.6794 22.4996C27.754 22.5054 27.8286 22.5054 27.8973 22.5054C28.2069 22.5054 28.5109 22.4877 28.8149 22.4523C32.783 21.9792 35.868 18.4845 35.8508 14.2625C35.8336 9.75671 32.2382 6.09057 27.863 6.10823ZM7.62088 20.6192H6.70337C6.39376 20.6192 6.08408 20.5896 5.78594 20.5305C3.49792 20.0751 1.7719 17.9701 1.82924 15.4629C1.86365 13.9491 2.55749 12.6068 3.6183 11.7139C4.48418 10.9807 5.60244 10.5491 6.80085 10.5727C7.13915 10.5846 7.47177 10.6259 7.79292 10.7028C7.85023 10.7146 7.89609 10.7324 7.95349 10.7442C7.98211 10.7501 8.01081 10.756 8.03374 10.7678C8.05666 10.7737 8.07959 10.7797 8.10829 10.7915H8.11976C8.84799 11.0221 9.582 10.4485 9.57623 9.65617V9.63248C9.57623 9.53788 9.57623 9.44329 9.582 9.35455C9.02003 9.07671 8.41221 8.88157 7.78145 8.77509C7.4316 8.71599 7.07615 8.68644 6.70914 8.68644C4.85696 8.68644 3.17107 9.46698 1.95539 10.7264C0.751197 11.9801 0 13.7008 0 15.6048C0 19.0936 2.52309 21.9969 5.79163 22.4523C6.02676 22.4877 6.26189 22.5054 6.49694 22.5114H6.5084C6.57149 22.5173 6.64027 22.5173 6.70337 22.5173C6.77223 22.5173 6.84101 22.5173 6.9098 22.5114C8.60717 22.4581 10.1554 21.7486 11.308 20.625H7.62088V20.6192Z" fill="#6D6D6D"/>
<path d="M25.8618 6.3803C25.5292 5.44011 25.0704 4.56497 24.4855 3.78443C22.7767 1.48415 20.0931 0 17.0711 0C12.2027 0 8.19442 3.86128 7.77009 8.76328C7.74717 9.04715 7.7357 9.33689 7.7357 9.62662C7.7357 9.98734 7.75285 10.348 7.79302 10.6969C7.85034 10.7087 7.89628 10.7264 7.95359 10.7382C7.98221 10.7442 8.01091 10.7501 8.03384 10.7619C8.05677 10.7679 8.07969 10.7737 8.1084 10.7856H8.11986C8.20019 10.8092 8.26897 10.8388 8.34922 10.8683C8.96281 11.0931 9.6108 10.6082 9.5821 9.9341C9.57641 9.8395 9.57641 9.7449 9.57641 9.65022V9.62662C9.57641 9.53202 9.57641 9.43743 9.5821 9.34869C9.72544 5.21543 13.0342 1.89217 17.0768 1.89217C19.8236 1.89217 22.2263 3.41776 23.5336 5.70029C23.7802 6.13786 23.9924 6.59318 24.1587 7.07805C24.1587 7.08391 24.1644 7.08985 24.1644 7.0958C24.1759 7.13129 24.1874 7.17264 24.1989 7.20814C24.2103 7.23175 24.2103 7.25544 24.2218 7.27904C24.2275 7.29093 24.2333 7.30274 24.2333 7.31454C24.4741 8.10103 25.2826 8.5504 26.0453 8.29616C26.0911 8.28436 26.1371 8.26661 26.1771 8.25472C26.2231 8.24292 26.2632 8.22517 26.309 8.21931C26.2173 7.58066 26.0682 6.9657 25.8618 6.3803ZM27.8974 20.6192C27.5878 20.6192 27.2782 20.6665 26.9799 20.6192H7.62098C7.51781 20.6369 7.42601 20.6428 7.32284 20.6428C7.1221 20.6428 6.91567 20.6192 6.70347 20.6192C6.39387 20.6192 6.08418 20.5896 5.78604 20.5304L6.49135 22.5055H27.9376L28.8206 20.5482C28.5167 20.5955 28.2128 20.6192 27.8974 20.6192Z" fill="#6D6D6D"/>
<path d="M28.1247 16.7731C28.1247 16.7731 26.4251 12.4461 22.9572 12.7129C22.9229 12.7129 18.8542 12.5795 18.1332 18.3552C18.1332 18.3171 13.8069 17.8977 13.5151 21.5195C13.5494 21.5385 13.1717 26.1896 18.631 25.7893L30.5797 25.8122C30.5797 25.8122 35.4038 23.5705 33.4467 19.255C31.4896 14.9394 28.1247 16.7731 28.1247 16.7731Z" fill="white"/>
<path d="M29.6834 15.9381C29.268 15.9419 28.8663 16.0029 28.4851 16.1135C28.1315 16.2164 27.7916 16.3651 27.4757 16.5557C27.4688 16.5595 27.4688 16.5671 27.4688 16.5748C27.4757 16.5976 27.4825 16.6244 27.4894 16.6472C27.4963 16.6625 27.4963 16.6777 27.5032 16.693C27.51 16.7158 27.5169 16.7463 27.5238 16.7692C27.6542 17.2496 28.1143 17.5241 28.5469 17.3639C28.5641 17.3563 28.5813 17.3525 28.595 17.3449C28.6225 17.3373 28.6499 17.3258 28.674 17.3182C28.7014 17.3106 28.7255 17.2991 28.7529 17.2953C29.0002 17.2229 29.2577 17.1771 29.5221 17.1619C31.7127 17.0437 33.5221 19.1024 33.3573 21.5308C33.2268 23.4294 31.9221 24.9658 30.2534 25.244C30.0749 25.2745 29.8894 25.2898 29.704 25.2898H26.7031C26.6894 25.2898 26.6825 25.3089 26.6963 25.3165C27.486 26.0332 28.4851 26.4716 29.5736 26.506C29.6182 26.5097 29.6629 26.5097 29.704 26.5097C29.8894 26.5097 30.0714 26.4983 30.2534 26.4755C32.6294 26.1705 34.4766 23.9174 34.4663 21.1953C34.456 18.2904 32.3032 15.9267 29.6834 15.9381ZM17.5631 25.2936H17.0138C16.8284 25.2936 16.643 25.2745 16.4644 25.2364C15.0944 24.9429 14.061 23.5857 14.0953 21.9692C14.1159 20.9933 14.5313 20.1279 15.1665 19.5522C15.685 19.0795 16.3546 18.8012 17.0721 18.8164C17.2747 18.8241 17.4739 18.8508 17.6662 18.9003C17.7005 18.908 17.7279 18.9194 17.7623 18.927C17.7794 18.9308 17.7966 18.9346 17.8103 18.9422C17.8241 18.9461 17.8378 18.9499 17.855 18.9575H17.8619C18.2979 19.1062 18.7374 18.7364 18.7339 18.2255V18.2103C18.7339 18.1493 18.7339 18.0883 18.7374 18.0311C18.4009 17.8519 18.037 17.7261 17.6593 17.6575C17.4498 17.6194 17.237 17.6003 17.0172 17.6003C15.9082 17.6003 14.8987 18.1036 14.1708 18.9156C13.4498 19.7238 13 20.8332 13 22.0607C13 24.3101 14.5107 26.1819 16.4678 26.4755C16.6086 26.4983 16.7494 26.5097 16.8902 26.5136H16.897C16.9348 26.5174 16.976 26.5174 17.0138 26.5174C17.055 26.5174 17.0962 26.5174 17.1374 26.5136C18.1537 26.4792 19.0808 26.0218 19.7709 25.2974H17.5631V25.2936Z" fill="#6D6D6D"/>
<path d="M28.4852 16.1135C28.2861 15.5074 28.0114 14.9431 27.6612 14.4399C26.638 12.9569 25.0311 12 23.2217 12C20.3066 12 17.9066 14.4895 17.6525 17.6499C17.6388 17.8329 17.6319 18.0197 17.6319 18.2065C17.6319 18.4391 17.6422 18.6716 17.6662 18.8965C17.7005 18.9041 17.728 18.9156 17.7624 18.9232C17.7795 18.927 17.7967 18.9308 17.8104 18.9385C17.8241 18.9423 17.8379 18.9461 17.8551 18.9537H17.8619C17.91 18.969 17.9512 18.988 17.9993 19.0071C18.3667 19.152 18.7547 18.8393 18.7375 18.4047C18.7341 18.3437 18.7341 18.2828 18.7341 18.2217V18.2065C18.7341 18.1455 18.7341 18.0845 18.7375 18.0273C18.8233 15.3625 20.8045 13.2199 23.2251 13.2199C24.8697 13.2199 26.3084 14.2035 27.0912 15.6751C27.2389 15.9572 27.3659 16.2508 27.4655 16.5634C27.4655 16.5672 27.4689 16.571 27.4689 16.5748C27.4758 16.5977 27.4827 16.6244 27.4895 16.6472C27.4964 16.6625 27.4964 16.6777 27.5033 16.693C27.5067 16.7006 27.5101 16.7082 27.5101 16.7158C27.6543 17.2229 28.1385 17.5126 28.5951 17.3487C28.6225 17.3411 28.6501 17.3297 28.6741 17.322C28.7016 17.3144 28.7256 17.3029 28.753 17.2992C28.6981 16.8874 28.6088 16.4909 28.4852 16.1135ZM29.7041 25.2936C29.5187 25.2936 29.3333 25.3241 29.1547 25.2936H17.5632C17.5014 25.3051 17.4465 25.3089 17.3847 25.3089C17.2645 25.3089 17.1409 25.2936 17.0138 25.2936C16.8285 25.2936 16.643 25.2746 16.4645 25.2364L16.8868 26.5098H29.7282L30.2569 25.2479C30.0749 25.2784 29.893 25.2936 29.7041 25.2936Z" fill="#6D6D6D"/>
<path d="M7.63998 24L3.99998 27.23" stroke="#6D6D6D" stroke-width="2" stroke-miterlimit="3.99393" stroke-linecap="round" stroke-linejoin="round"/>
<path d="M12.64 25L9.00001 28.23" stroke="#6D6D6D" stroke-width="2" stroke-miterlimit="3.99393" stroke-linecap="round" stroke-linejoin="round"/>
<path d="M17.64 28L14 31.23" stroke="#6D6D6D" stroke-width="2" stroke-miterlimit="3.99393" stroke-linecap="round" stroke-linejoin="round"/>
<path d="M23.64 28L20 31.23" stroke="#6D6D6D" stroke-width="2" stroke-miterlimit="3.99393" stroke-linecap="round" stroke-linejoin="round"/>
<path d="M30.64 28L27 31.23" stroke="#6D6D6D" stroke-width="2" stroke-miterlimit="3.99393" stroke-linecap="round" stroke-linejoin="round"/>
</svg>
