<svg width="47" height="47" viewBox="0 0 47 47" fill="none" xmlns="http://www.w3.org/2000/svg">
<circle cx="23.5" cy="23.5" r="12" fill="#FFBC00"/>
<path d="M23.5 7.5V1.5" stroke="#6D6D6D" stroke-width="3" stroke-miterlimit="3.99393" stroke-linecap="round" stroke-linejoin="round"/>
<path d="M23.5 45.5V39.5" stroke="#6D6D6D" stroke-width="3" stroke-miterlimit="3.99393" stroke-linecap="round" stroke-linejoin="round"/>
<path d="M15.5 9.64359L12.5 4.44743" stroke="#6D6D6D" stroke-width="3" stroke-miterlimit="3.99393" stroke-linecap="round" stroke-linejoin="round"/>
<path d="M34.5 42.5526L31.5 37.3564" stroke="#6D6D6D" stroke-width="3" stroke-miterlimit="3.99393" stroke-linecap="round" stroke-linejoin="round"/>
<path d="M9.6436 15.5L4.44745 12.5" stroke="#6D6D6D" stroke-width="3" stroke-miterlimit="3.99393" stroke-linecap="round" stroke-linejoin="round"/>
<path d="M42.5526 34.5L37.3564 31.5" stroke="#6D6D6D" stroke-width="3" stroke-miterlimit="3.99393" stroke-linecap="round" stroke-linejoin="round"/>
<path d="M7.5 23.5H1.5" stroke="#6D6D6D" stroke-width="3" stroke-miterlimit="3.99393" stroke-linecap="round" stroke-linejoin="round"/>
<path d="M45.5 23.5H39.5" stroke="#6D6D6D" stroke-width="3" stroke-miterlimit="3.99393" stroke-linecap="round" stroke-linejoin="round"/>
<path d="M9.6436 31.5L4.44745 34.5" stroke="#6D6D6D" stroke-width="3" stroke-miterlimit="3.99393" stroke-linecap="round" stroke-linejoin="round"/>
<path d="M42.5526 12.5L37.3564 15.5" stroke="#6D6D6D" stroke-width="3" stroke-miterlimit="3.99393" stroke-linecap="round" stroke-linejoin="round"/>
<path d="M15.5 37.3564L12.5 42.5526" stroke="#6D6D6D" stroke-width="3" stroke-miterlimit="3.99393" stroke-linecap="round" stroke-linejoin="round"/>
<path d="M34.5 4.44745L31.5 9.6436" stroke="#6D6D6D" stroke-width="3" stroke-miterlimit="3.99393" stroke-linecap="round" stroke-linejoin="round"/>
<path d="M23.5 39.5V45.5" stroke="#6D6D6D" stroke-width="3" stroke-miterlimit="3.99393" stroke-linecap="round" stroke-linejoin="round"/>
<path d="M23.5 1.5V7.5" stroke="#6D6D6D" stroke-width="3" stroke-miterlimit="3.99393" stroke-linecap="round" stroke-linejoin="round"/>
<path d="M31.5 37.3564L34.5 42.5526" stroke="#6D6D6D" stroke-width="3" stroke-miterlimit="3.99393" stroke-linecap="round" stroke-linejoin="round"/>
<path d="M12.5 4.44745L15.5 9.6436" stroke="#6D6D6D" stroke-width="3" stroke-miterlimit="3.99393" stroke-linecap="round" stroke-linejoin="round"/>
<path d="M37.3564 31.5L42.5526 34.5" stroke="#6D6D6D" stroke-width="3" stroke-miterlimit="3.99393" stroke-linecap="round" stroke-linejoin="round"/>
<path d="M4.44743 12.5L9.64359 15.5" stroke="#6D6D6D" stroke-width="3" stroke-miterlimit="3.99393" stroke-linecap="round" stroke-linejoin="round"/>
<path d="M39.5 23.5H45.5" stroke="#6D6D6D" stroke-width="3" stroke-miterlimit="3.99393" stroke-linecap="round" stroke-linejoin="round"/>
<path d="M1.5 23.5H7.5" stroke="#6D6D6D" stroke-width="3" stroke-miterlimit="3.99393" stroke-linecap="round" stroke-linejoin="round"/>
<path d="M37.3564 15.5L42.5526 12.5" stroke="#6D6D6D" stroke-width="3" stroke-miterlimit="3.99393" stroke-linecap="round" stroke-linejoin="round"/>
<path d="M4.44743 34.5L9.64359 31.5" stroke="#6D6D6D" stroke-width="3" stroke-miterlimit="3.99393" stroke-linecap="round" stroke-linejoin="round"/>
<path d="M31.5 9.64359L34.5 4.44743" stroke="#6D6D6D" stroke-width="3" stroke-miterlimit="3.99393" stroke-linecap="round" stroke-linejoin="round"/>
<path d="M12.5 42.5526L15.5 37.3564" stroke="#6D6D6D" stroke-width="3" stroke-miterlimit="3.99393" stroke-linecap="round" stroke-linejoin="round"/>
</svg>
